PathFileType	4	(X/Y/Z)	S01_0011_Gait_markers.trc
DataRate	CameraRate	NumFrames	NumMarkers	Units	OrigDataRate	OrigDataStartFrame	OrigNumFrames
250.000000	250.000000	4	54	mm	250.000000	0	359
Frame#	Time	HEAD_ANT			R_HEAD			L_HEAD			C7			R_BACK			L_BACK			STERNUM			R_ACROMION			R_HUM_PROX			R_HUM_ANT			R_HUM_POST			R_ELBOW_LAT			R_ELBOW_MED			R_FOREARM			R_WIRST_LAT			R_WRITS_MED			R_HAND			L_ACROMION			L_HUM_PROX			L_HUM_ANT			L_HUM_POST			L_ELBOW_LAT			L_ELBOW_MED			L_FOREARM			L_WRIST_LAT			L_WIRST_MED			L_HAND			R_ILIAC			SACRUM			L_ILIAC			R_GTROCH			R_THIGH__1			R_THIGH_2			R_THIGH_3			R_THIGH_4			R_SHANK_1			R_SHANK_2			R_SHANK_3			R_SHANK_4			R_HEEL			R_FOOT_LAT			R_FOOT_MED			L_GTROCH			L_THIGH_1			L_THIGH_2			L_THIGH_3			L_THIGH_4			L_SHANK_1			L_SHANK_2			L_SHANK_3			L_SHANK_4			L_HEEL			L_FOOT_LAT			L_FOOT_MED			
		X1	Y1	Z1	X2	Y2	Z2	X3	Y3	Z3	X4	Y4	Z4	X5	Y5	Z5	X6	Y6	Z6	X7	Y7	Z7	X8	Y8	Z8	X9	Y9	Z9	X10	Y10	Z10	X11	Y11	Z11	X12	Y12	Z12	X13	Y13	Z13	X14	Y14	Z14	X15	Y15	Z15	X16	Y16	Z16	X17	Y17	Z17	X18	Y18	Z18	X19	Y19	Z19	X20	Y20	Z20	X21	Y21	Z21	X22	Y22	Z22	X23	Y23	Z23	X24	Y24	Z24	X25	Y25	Z25	X26	Y26	Z26	X27	Y27	Z27	X28	Y28	Z28	X29	Y29	Z29	X30	Y30	Z30	X31	Y31	Z31	X32	Y32	Z32	X33	Y33	Z33	X34	Y34	Z34	X35	Y35	Z35	X36	Y36	Z36	X37	Y37	Z37	X38	Y38	Z38	X39	Y39	Z39	X40	Y40	Z40	X41	Y41	Z41	X42	Y42	Z42	X43	Y43	Z43	X44	Y44	Z44	X45	Y45	Z45	X46	Y46	Z46	X47	Y47	Z47	X48	Y48	Z48	X49	Y49	Z49	X50	Y50	Z50	X51	Y51	Z51	X52	Y52	Z52	X53	Y53	Z53	X54	Y54	Z54	

1	0	73.95191192626953	1738.847290039062	-305.8219909667965	13.88181495666504	1688.721801757812	-230.1125488281246	14.27980995178223	1695.265502929688	-377.5040588378902	-127.8581161499023	1524.828979492188	-311.4010314941403	-203.9884643554688	1329.327270507812	-243.9796752929685	-201.6011810302734	1332.47412109375	-386.9309997558591	48.43613433837891	1362.818725585938	-303.4334411621091	-57.31745529174805	1480.581420898438	-137.0112457275387	-118.0989532470703	1327.92529296875	-43.68980026245088	-66.67161560058594	1236.955810546875	-30.48506736755344	-187.8570861816406	1251.69580078125	-35.16219329833957	-152.7958221435547	1142.814697265625	-19.01613426208471	-165.4928741455078	1136.656494140625	-98.61992645263646	-69.76773834228516	950.9340209960938	-2.374038934707431	-36.96045303344727	880.2108154296875	-39.64120864868144	-106.7707977294922	864.1509399414062	-1.802943348884391	-44.05566787719727	791.5930786132812	14.12380313873309	-48.33797073364258	1478.777587890625	-474.9621887207028	-57.03375244140625	1313.359985351563	-573.0245971679684	8.901308059692383	1235.703369140625	-564.383605957031	-109.4253616333008	1233.115356445313	-602.9430541992185	-42.46916961669922	1131.808959960938	-605.2860107421873	-101.558952331543	1120.57666015625	-552.940979003906	98.862548828125	990.3934936523439	-552.987121582031	140.82958984375	949.7024536132814	-491.6228027343748	107.4664154052734	905.5241699218751	-549.1078491210935	196.1085052490234	880.2917480468751	-527.3465576171873	-52.26256942749023	1075.818115234375	-139.8142395019529	-185.4563751220703	1048.768432617188	-298.4699096679685	-73.83571624755859	1072.165771484375	-480.3360595703123	-83.98694610595703	924.0857543945312	-119.3950347900389	37.49557495117188	658.692626953125	-142.2213897705077	85.67899322509766	691.5949096679688	-141.2938842773436	121.7349700927734	595.24853515625	-172.9228668212889	58.70505905151367	580.6618041992188	-160.6959533691405	63.12513732910156	364.3718566894532	-151.9395599365234	119.3241424560547	345.9779968261719	-165.4281616210937	119.2318496704102	260.8757324218751	-177.0999145507812	55.58147430419922	264.0870971679688	-168.7308044433593	30.54767227172852	46.79021072387701	-247.8410491943359	189.8182678222656	31.99376869201664	-159.7201690673828	242.7909851074219	51.48376464843756	-246.6197662353516	-116.7693023681641	961.0481567382814	-482.0371093749998	-79.5859375	665.2382812500001	-461.086212158203	-129.2898101806641	694.3922729492189	-473.8761596679686	-159.3486328125	597.9163818359376	-438.4660339355468	-96.25034332275391	589.8143310546876	-434.7645263671874	-190.9747924804688	330.3406982421876	-414.3973999023437	-250.5506134033203	320.6045532226564	-414.4342346191406	-269.8915100097656	237.4575195312501	-393.3187866210937	-205.830078125	232.0769195556641	-387.0264892578124	-341.7555541992188	62.40527725219734	-313.4952087402344	-172.7048492431641	20.31361579895028	-388.66845703125	-133.1003723144531	27.30768013000495	-283.485595703125	
2	0.004	79.42939758300781	1737.802001953125	-305.4875488281246	19.40629768371582	1687.675659179688	-229.8952178955074	19.55507850646973	1694.374877929688	-377.170257568359	-122.4316558837891	1523.762084960938	-311.3034973144528	-198.8382110595703	1328.214599609375	-244.1175689697263	-196.1807098388672	1331.456420898438	-386.8695983886716	53.71661758422852	1361.563720703125	-302.9420776367185	-52.07633972167969	1479.466064453125	-136.8771667480465	-112.9088973999023	1326.85498046875	-43.20162582397432	-61.83964538574219	1235.731689453125	-30.08149147033664	-183.1710052490234	1250.830322265625	-35.26402664184543	-147.8809967041016	1142.085205078125	-19.18574523925756	-160.4040679931641	1135.5380859375	-98.48909759521459	-65.38657379150391	949.7295532226562	-2.019320487975863	-32.60935974121094	879.0387573242188	-39.45367431640606	-102.5306091308594	862.9910888671875	-1.854021906852531	-39.91621780395508	790.3206787109375	14.30191993713396	-42.86976623535156	1477.8037109375	-474.7870178222653	-51.28026962280273	1312.545043945313	-573.1663818359372	14.90117645263672	1235.058837890625	-564.4968261718748	-103.5757369995117	1232.103149414063	-603.3718261718748	-36.12435531616211	1131.171264648438	-605.6088256835935	-95.40341186523438	1119.680297851563	-553.3524169921873	105.6394500732422	990.2926025390626	-552.7586669921873	147.2563781738281	949.5589599609376	-491.1851806640623	114.609733581543	905.4766845703126	-549.299377441406	203.1992645263672	880.5072021484376	-526.5880737304685	-46.77342224121094	1074.675415039062	-139.903381347656	-180.7687530517578	1048.0986328125	-298.4818115234373	-68.22345733642578	1071.090209960938	-480.3641967773435	-78.36833953857422	923.03857421875	-119.6958541870115	42.70537567138672	657.3949584960938	-142.0762786865233	90.83341217041016	690.5512084960938	-141.0899047851561	127.0534210205078	593.7926635742188	-173.4518737792967	63.98335647583008	579.3990478515625	-160.8644104003905	72.29953765869141	362.8115234375001	-152.458023071289	128.8205871582031	345.6852722167969	-165.8678588867187	130.8497772216797	260.4149169921876	-178.3156585693359	67.00194549560547	262.3362731933594	-169.7316741943359	47.32722854614258	44.9142570495606	-249.393798828125	206.7819061279297	32.74533081054691	-160.8196258544922	259.4951782226562	53.45169830322271	-247.6394500732422	-111.9540252685547	960.1851196289064	-481.9869384765623	-76.77043914794922	664.6196289062501	-461.0049438476561	-126.3481521606445	694.0771484375001	-474.0195007324217	-156.8111877441406	597.7621459960939	-438.4430236816405	-93.74056243896484	589.1390380859376	-434.747100830078	-189.9148254394531	330.4769592285157	-414.2290039062499	-249.59228515625	320.9319152832032	-414.2194519042968	-269.0068054199219	237.6867065429688	-392.8813171386718	-205.0868072509766	232.0939483642579	-386.7233276367187	-341.5534362792969	63.06158065795906	-313.0851440429688	-172.8338775634766	20.35949897766122	-388.5274658203125	-133.0224609375	27.29959106445319	-283.4466857910156	
3	0.008	84.95925140380859	1736.826538085938	-305.0539245605465	24.82712364196777	1686.400390625	-229.4580841064449	25.04793167114258	1693.355346679688	-376.8915100097652	-116.9195327758789	1522.720581054688	-311.1034851074215	-193.2780914306641	1327.040161132812	-244.0630035400388	-190.67822265625	1330.550415039062	-386.8871154785153	59.27211380004883	1360.3798828125	-302.7570190429685	-46.72888946533203	1478.244873046875	-136.7018585205075	-107.9342880249023	1325.841186523438	-43.09002304077119	-57.10002136230469	1234.628662109375	-30.02578735351535	-178.4380340576172	1249.772583007812	-35.50553512573214	-142.7576599121094	1140.798461914062	-19.14254188537572	-155.5765991210938	1134.390014648438	-98.69042205810521	-61.12790298461914	948.7315673828125	-2.1147379875181	-28.20365715026855	877.8093872070312	-39.21801376342754	-98.2830810546875	861.8969116210938	-1.695303678512382	-35.73364639282227	789.1041870117188	14.44232273101824	-37.4674186706543	1476.745727539062	-474.7861938476559	-45.41941833496094	1311.722412109375	-573.1323852539059	20.95277976989746	1234.370727539063	-564.609680175781	-97.44361114501953	1231.327880859375	-603.5265502929685	-29.80640983581543	1130.347900390625	-605.7860717773435	-89.37541961669922	1118.729858398438	-553.7250976562498	112.3543701171875	990.1766967773439	-552.5762939453123	154.6387786865234	949.7089843750001	-491.0765380859373	121.8882827758789	905.4553222656251	-549.4020385742185	210.402587890625	880.8406982421876	-525.7098999023435	-40.98739242553711	1073.508178710938	-139.8988494873045	-175.3597564697266	1047.099609375	-298.2359924316404	-62.63195037841797	1069.878051757812	-480.2431335449216	-72.77287292480469	921.8773193359375	-119.8456573486326	47.60068893432617	656.497314453125	-142.3598785400389	96.07553863525391	689.465576171875	-141.4149780273436	132.3365783691406	593.0372924804688	-173.0252532958983	69.04483795166016	578.4022827148438	-161.016632080078	81.42530059814453	361.1344604492188	-152.998794555664	138.4941711425781	345.3099060058594	-166.1882934570312	142.2190856933594	260.2650756835938	-179.0118865966796	78.46286010742188	260.5410461425782	-170.7151336669921	64.05783081054688	43.18581008911138	-251.2318725585938	223.2703704833984	33.73754501342777	-162.1814270019531	276.173828125	55.63112258911138	-248.5463256835938	-106.8933334350586	959.4034423828126	-481.7902526855466	-73.82791137695312	664.0757446289064	-461.440704345703	-123.3754196166992	693.7933349609376	-473.7411193847655	-154.1867370605469	597.5908813476564	-438.2218933105468	-91.119384765625	588.6344604492189	-435.4842529296874	-188.6179962158203	330.4949645996095	-414.0766906738281	-248.4990997314453	321.2005004882814	-413.9950256347656	-267.9185180664062	238.275131225586	-392.6119995117187	-204.3250732421875	232.2064056396485	-386.7771911621093	-341.3662719726562	63.73114013671882	-312.5247802734375	-172.9813232421875	20.38903045654305	-388.3772888183594	-132.87353515625	27.28286743164069	-283.4895629882812	
4	0.012	90.39967346191406	1735.875244140625	-304.5530090332027	30.30641555786133	1685.248779296875	-229.1850280761715	30.46503257751465	1692.29052734375	-376.5208740234371	-111.500114440918	1521.6923828125	-310.991546630859	-187.7961578369141	1325.707763671875	-244.1779937744138	-185.1518402099609	1329.53369140625	-386.8731384277341	64.86525726318359	1359.168823242188	-302.6693725585935	-41.41445922851562	1477.073120117188	-136.5081176757809	-103.2276077270508	1324.621704101562	-43.56896972656221	-52.30373764038086	1233.444702148438	-29.6999206542966	-173.6460266113281	1248.823120117188	-35.75000381469699	-136.8803100585938	1139.35888671875	-19.12748336791967	-150.6902770996094	1133.314697265625	-98.78164672851537	-56.64035797119141	947.460205078125	-1.749514460563449	-23.70354652404785	876.6788940429688	-38.87122726440411	-93.99018859863281	860.7799072265625	-1.597302794456291	-31.5556526184082	787.8377685546875	14.53120422363299	-31.7007999420166	1475.705322265625	-474.5700073242184	-39.53764724731445	1310.807373046875	-573.1635131835934	27.00490760803223	1233.620971679688	-564.7111206054685	-91.26235961914062	1230.214721679688	-603.6470947265623	-23.43561935424805	1129.566162109375	-605.9572143554685	-83.04773712158203	1117.754516601563	-554.099426269531	119.0113067626953	989.9493408203126	-552.4454345703123	161.0994567871094	949.5607910156251	-490.747863769531	129.1347503662109	905.0241088867189	-548.9120483398435	217.4947662353516	880.9170532226564	-524.9956054687498	-35.20001983642578	1072.256958007812	-139.831100463867	-169.8826141357422	1046.17919921875	-298.2375793457029	-57.34904861450195	1068.632568359375	-480.9501647949216	-67.22761535644531	920.814208984375	-120.2126770019529	52.64139938354492	655.115478515625	-142.4449310302733	101.3227310180664	688.2354736328125	-140.8378601074217	137.4926300048828	592.1005859375	-172.4923095703124	74.18433380126953	577.0565795898438	-161.0844726562499	90.59513854980469	359.4008789062501	-153.5833129882812	148.0725555419922	345.0505065917969	-166.7064056396484	153.9359130859375	260.1892395019532	-179.1752929687499	89.89221954345703	259.0039672851563	-171.6432495117187	80.61319732666016	41.85451126098638	-252.9815063476562	239.8244476318359	35.03545761108402	-163.2071838378906	292.5300903320312	57.86661529541021	-249.3371276855469	-102.0114135742188	958.6818847656251	-481.7714233398435	-70.80205535888672	663.5250854492189	-461.5128479003905	-120.3369827270508	693.5930786132814	-473.6933288574217	-151.5601501464844	597.5253906250001	-438.1824645996093	-88.49787902832031	588.0482788085939	-435.3108520507811	-187.2693481445312	330.422088623047	-414.0148925781249	-247.0291900634766	321.5192260742189	-413.5722656249999	-267.0126037597656	238.7413635253907	-392.4127197265624	-203.2890930175781	232.251678466797	-386.6694335937499	-341.0655212402344	64.97900390625007	-311.8611450195312	-173.1228485107422	20.41981887817391	-388.2413024902344	-132.7535400390625	27.14657592773444	-283.5599060058594	
